<svg xmlns="http://www.w3.org/2000/svg" xmlns:xlink="http://www.w3.org/1999/xlink" width="559" zoomAndPan="magnify" viewBox="0 0 419.25 297.749991" height="397" preserveAspectRatio="xMidYMid meet" version="1.0"><defs><filter x="0%" y="0%" width="100%" height="100%" id="a512bc4664"><feColorMatrix values="0 0 0 0 1 0 0 0 0 1 0 0 0 0 1 0 0 0 1 0" color-interpolation-filters="sRGB"/></filter><clipPath id="69714344c3"><path d="M 8 77 L 418.5 77 L 418.5 224 L 8 224 Z M 8 77 " clip-rule="nonzero"/></clipPath><clipPath id="62085de8bf"><path d="M 0.484375 1.496094 L 410.476562 1.496094 L 410.476562 145.890625 L 0.484375 145.890625 Z M 0.484375 1.496094 " clip-rule="nonzero"/></clipPath><mask id="243c9732e6"><g filter="url(#a512bc4664)"><rect x="-100.235" width="603.72" fill="#000000" y="-142.504998" height="428.759987" fill-opacity="0.2"/></g></mask><clipPath id="ebaf562a83"><path d="M 0.246094 0.542969 L 344.992188 0.542969 L 344.992188 84 L 0.246094 84 Z M 0.246094 0.542969 " clip-rule="nonzero"/></clipPath><clipPath id="777a43c58c"><rect x="0" width="345" y="0" height="85"/></clipPath><clipPath id="a7096051d6"><rect x="0" width="411" y="0" height="147"/></clipPath></defs><g clip-path="url(#69714344c3)"><g transform="matrix(1, 0, 0, 1, 8, 77)"><g clip-path="url(#a7096051d6)"><g clip-path="url(#62085de8bf)"><path fill="#8f7a6e" d="M 202.851562 7.492188 L 199.378906 10.972656 L 201.234375 15.660156 L 193.457031 22.570312 C 197.238281 21.660156 200.113281 19.097656 202.917969 17.902344 C 209.519531 15.082031 222.46875 10.980469 229.609375 9.386719 C 233.601562 8.492188 250.164062 6.023438 254.03125 6.179688 C 263.882812 6.570312 264.289062 10.683594 267.347656 14.203125 C 269.253906 16.398438 273.609375 17.710938 272.28125 20.6875 C 284.140625 19.589844 291.027344 26.75 293.484375 32.003906 L 317.402344 24.546875 L 320.519531 25.714844 L 319.339844 23.832031 C 321.5625 23.828125 323.625 23.296875 325.828125 23.207031 C 338.515625 22.699219 342.589844 27.578125 346.429688 33.261719 C 353.03125 30.878906 359.71875 27.714844 368.179688 27.550781 C 378.253906 27.359375 385.691406 34.542969 385.253906 39.550781 L 395.195312 37.710938 L 397.605469 40.175781 L 398.769531 38.921875 C 400.042969 40.707031 404.347656 41.304688 405.554688 42.847656 C 406.652344 44.25 405.917969 45.636719 406.625 46.695312 C 407.199219 47.554688 409.371094 47.429688 409.933594 48.207031 C 411.710938 50.667969 409.203125 57.601562 404.085938 58.726562 L 406.230469 60.105469 L 402.292969 63.445312 L 399.371094 62.191406 L 400.324219 64.609375 C 395.972656 65.15625 398.230469 68.734375 392.3125 67.222656 L 394.648438 69.734375 L 391.125 69.429688 L 390.878906 71.492188 L 380.542969 76.339844 L 382.820312 77.882812 C 379.261719 77.652344 381.195312 79.417969 380.285156 80.269531 C 379.285156 81.203125 374.304688 84.273438 372.5 85.878906 C 369.582031 88.480469 365.8125 93.144531 362.929688 95.226562 C 361.609375 96.175781 358.523438 96.742188 358.390625 96.867188 C 358.15625 97.09375 359.605469 97.996094 358.832031 98.640625 C 358.179688 99.183594 354.714844 100.011719 353.847656 101.15625 L 346.414062 99.925781 C 350.386719 101.699219 354.128906 104.15625 350.882812 107.050781 C 349.535156 108.253906 346.167969 107.992188 347.585938 110.617188 L 345.257812 110.304688 L 345.664062 108.742188 L 342.894531 107.46875 L 342.863281 112.496094 L 340.539062 111.859375 L 340.304688 113.597656 L 335.828125 114.703125 L 339.34375 115.320312 L 335.4375 117.996094 L 332.285156 118.160156 L 333.328125 119.75 L 332.308594 121.296875 L 328.75 121.304688 L 329.367188 125.675781 L 324.0625 126.324219 L 323.886719 128.753906 L 319.234375 129.792969 L 319.351562 131.359375 L 301.035156 126.335938 L 304.066406 122.195312 L 302.34375 119.378906 L 294.03125 116.855469 C 291.082031 116.863281 283.832031 123.375 281.742188 124.648438 C 280.820312 125.210938 279.066406 124.945312 278.523438 125.230469 C 277.691406 125.667969 278.023438 126.863281 276.492188 127.632812 C 274.78125 128.492188 269.605469 129.089844 267.246094 128.746094 L 265.226562 126.335938 L 260.457031 126.703125 L 259.328125 124.441406 L 255.101562 125.046875 L 252.320312 124.089844 C 252.664062 122.964844 253.601562 121.957031 254.609375 120.972656 C 262.820312 112.898438 283.429688 104.398438 290.453125 96.09375 C 290.988281 95.464844 291.207031 93.082031 290.527344 92.378906 C 285.578125 93.21875 285.929688 94.703125 284.085938 95.824219 C 281.933594 97.136719 278.578125 98.082031 278.144531 99.921875 L 274.644531 98.664062 C 277.703125 102.097656 271.234375 102.480469 268.285156 104.386719 C 266.210938 105.730469 262.6875 108.945312 261.675781 110.609375 L 257 109.351562 C 257.476562 112.003906 254.160156 112.457031 252.289062 113.746094 L 254.691406 114.078125 L 253.558594 116.023438 L 245.847656 118.394531 L 246.316406 119.363281 L 242.871094 119.421875 L 245.214844 121.296875 L 240.527344 120.667969 C 240.5625 123.789062 237.007812 124.617188 234.542969 126.925781 L 229.933594 125.703125 L 230.921875 127.507812 L 226.972656 129.472656 L 225.148438 127.609375 L 220.5 127.585938 L 221.414062 125.808594 L 216.980469 123.195312 L 217.691406 125.078125 C 213.566406 125.375 211.769531 127.949219 209.894531 128.535156 C 207.644531 129.234375 190.398438 128.992188 188.144531 126.980469 L 180.492188 133.257812 L 176.980469 132.625 L 178.144531 135.132812 C 177.796875 135.28125 170.117188 134.832031 169.269531 134.632812 C 167.074219 134.113281 164.859375 132.296875 161.015625 132.046875 L 159.117188 129.621094 L 156.996094 129.808594 L 161.09375 122.5625 C 159.40625 124.375 154.523438 124.945312 152.621094 125.898438 C 145.789062 129.324219 148.769531 128.671875 139.902344 131.554688 C 139.644531 131.640625 139.851562 133.589844 136.929688 134.214844 L 131.082031 133.886719 L 133.335938 135.535156 L 126.871094 138.304688 L 121.679688 137.023438 L 121.675781 140.800781 C 113.957031 141.613281 110.390625 139.320312 104.570312 137.683594 L 102.273438 135.144531 L 99.304688 138.914062 L 95.785156 138.910156 L 95.773438 137.019531 L 89.894531 137.65625 C 88.507812 139.84375 94.628906 138.105469 93.417969 139.84375 C 92.175781 141.625 84.824219 141.726562 81.652344 142.058594 L 82.851562 143.933594 C 69.230469 147.421875 59.65625 145.941406 49.078125 140.636719 C 48.226562 139.253906 49.410156 130.453125 50.175781 128.679688 C 51.886719 124.710938 57.640625 120.097656 60.472656 116.273438 L 56.921875 116.546875 L 49.542969 113.875 C 36.277344 118.238281 15.199219 121.546875 3.363281 114.414062 C -1.117188 111.710938 1.730469 108.375 0.484375 104.953125 L 4 104.632812 L 1.527344 103.410156 C 9.027344 92.679688 24.621094 84.359375 35.789062 74.769531 L 40.472656 76.648438 L 38.726562 73.511719 C 39.410156 72.246094 53.9375 61.496094 56.347656 60.265625 C 58.496094 59.167969 58.574219 59.171875 61.65625 59.679688 C 61.460938 55.703125 70.355469 51.558594 75.367188 48.425781 C 98.613281 33.894531 121.890625 21.789062 150.535156 10.636719 C 154.554688 9.074219 156.417969 7.984375 161.222656 6.574219 C 162.035156 6.335938 161.769531 5.035156 165.199219 5.59375 L 162.851562 8.101562 L 167.453125 7.117188 L 166.449219 4.386719 C 175.480469 2.636719 185.203125 1.246094 194.960938 1.953125 L 198.777344 3.746094 L 199.191406 6.578125 Z M 182.269531 6.851562 L 182.269531 7.480469 C 183.03125 7.269531 183.03125 7.058594 182.269531 6.851562 Z M 160.492188 9.996094 L 154.625 10 L 156.871094 10.660156 L 155.800781 12.507812 C 158.96875 12.070312 161.207031 12.441406 160.492188 9.996094 Z M 171.089844 13.132812 L 169.308594 11.886719 L 167.558594 11.886719 L 169.34375 13.132812 Z M 222.851562 18.792969 L 225.203125 11.882812 L 222.003906 13.535156 Z M 231.6875 12.507812 L 231.6875 13.136719 C 232.453125 12.929688 232.453125 12.71875 231.6875 12.507812 Z M 229.917969 17.539062 L 229.339844 16.285156 L 227.570312 17.535156 Z M 218.746094 16.910156 L 218.746094 17.539062 C 219.507812 17.332031 219.507812 17.121094 218.746094 16.910156 Z M 134.050781 41.910156 C 137.878906 37.683594 141.671875 37.601562 146.996094 34.535156 C 153.359375 30.867188 160.570312 26.199219 166.359375 22.242188 C 167.351562 21.566406 169.460938 20.296875 169.335938 19.441406 L 146.351562 29.832031 L 141.679688 29.480469 C 141.882812 32.519531 137.546875 34.046875 132.496094 34.625 L 132.28125 36.105469 L 127.511719 36.027344 C 125.992188 38.351562 123.203125 40.453125 118.28125 39.585938 L 116.945312 41.132812 L 119.210938 42.308594 L 116.84375 44.523438 L 113.640625 44.035156 L 108.730469 45.84375 L 107.5625 43.957031 C 108.421875 46.761719 107.253906 47.421875 104.0625 49.28125 L 100.496094 48.984375 L 100.613281 51.835938 L 89.902344 54.019531 L 90.964844 56.183594 L 87.488281 57.523438 L 88.714844 59.671875 L 84.574219 59.613281 L 79.339844 63.835938 L 75.789062 63.449219 L 78.117188 66.316406 L 83.414062 65.304688 L 85.179688 66.589844 L 85.324219 63.511719 L 96.953125 60.304688 L 92.355469 62.550781 L 93.445312 64.699219 C 88.988281 64.253906 88.71875 66.421875 86.667969 67.238281 C 81.210938 69.414062 76.300781 69.246094 69.894531 68.75 L 64.101562 74.988281 L 60.472656 75.398438 L 61.625 77.214844 C 57.289062 77.65625 56.191406 79.894531 53.453125 81.386719 C 48.054688 84.328125 42.839844 86.183594 38.832031 89.921875 C 38.199219 90.515625 36.339844 92.59375 36.960938 93.003906 C 53.75 90.152344 64.332031 82.277344 76.90625 76.296875 C 86.425781 71.769531 94.09375 68.851562 101.960938 64.234375 C 102.53125 63.898438 104.335938 64.253906 105.28125 63.683594 C 106.582031 62.894531 107.128906 60.171875 109.878906 59.359375 L 101.667969 59.050781 L 102.335938 62.21875 L 95.789062 63.445312 C 94.691406 61.199219 99.535156 62.601562 100.488281 62.183594 C 96.355469 58.007812 108.175781 55.128906 113.015625 52.535156 C 118.144531 49.785156 118.410156 48.816406 125.09375 46.101562 C 126.140625 45.675781 126.585938 44.746094 127.574219 44.234375 L 133.1875 43.554688 C 131.542969 41.820312 133.835938 42.144531 134.050781 41.910156 Z M 188.152344 19.425781 L 188.152344 20.054688 C 188.914062 19.847656 188.914062 19.636719 188.152344 19.425781 Z M 193.441406 19.433594 L 189.921875 19.429688 L 189.929688 20.683594 L 193.4375 20.046875 Z M 233.449219 19.433594 L 231.105469 19.433594 L 231.105469 20.050781 L 233.449219 20.050781 Z M 233.449219 21.9375 L 233.441406 20.683594 L 229.929688 21.320312 L 229.929688 21.9375 Z M 189.328125 21.3125 L 189.328125 21.941406 C 190.09375 21.734375 190.09375 21.523438 189.328125 21.3125 Z M 211.683594 24.457031 L 211.683594 25.085938 C 212.449219 24.878906 212.449219 24.667969 211.683594 24.457031 Z M 331.707031 24.457031 L 331.707031 25.085938 C 332.46875 24.878906 332.46875 24.667969 331.707031 24.457031 Z M 179.320312 26.351562 L 176.980469 26.351562 L 176.980469 26.96875 L 179.320312 26.96875 Z M 218.746094 28.859375 L 218.746094 29.488281 C 219.507812 29.277344 219.507812 29.070312 218.746094 28.859375 Z M 166.972656 29.488281 L 166.972656 30.117188 C 167.734375 29.90625 167.734375 29.699219 166.972656 29.488281 Z M 288.75 29.492188 L 286.402344 29.496094 L 288.175781 30.742188 Z M 106.960938 32.003906 L 106.960938 32.632812 C 107.726562 32.421875 107.726562 32.214844 106.960938 32.003906 Z M 292.28125 32.636719 L 289.941406 32.636719 L 289.941406 33.886719 L 292.28125 33.886719 Z M 355.238281 32.632812 L 355.238281 33.261719 C 356.003906 33.050781 356.003906 32.84375 355.238281 32.632812 Z M 316.398438 33.273438 C 315.234375 33.710938 317.03125 34.136719 317.597656 34.507812 C 318.765625 34.09375 317.046875 33.675781 316.398438 33.273438 Z M 341.105469 33.273438 C 339.945312 33.710938 341.738281 34.136719 342.308594 34.507812 C 343.476562 34.09375 341.757812 33.675781 341.105469 33.273438 Z M 204.625 33.890625 L 204.625 34.519531 C 205.390625 34.308594 205.390625 34.101562 204.625 33.890625 Z M 326.519531 35.101562 L 327.023438 33.949219 L 322.882812 33.894531 L 323.5625 36.414062 L 315.699219 39.210938 L 314.636719 43.949219 L 317.617188 44.425781 L 329.933594 35.460938 Z M 115.773438 38.292969 L 115.203125 36.410156 L 113.457031 37.347656 Z M 156.382812 36.40625 L 156.382812 37.035156 C 157.144531 36.824219 157.144531 36.617188 156.382812 36.40625 Z M 188.734375 36.414062 L 186.390625 36.414062 L 186.390625 37.027344 L 188.734375 37.027344 Z M 232.269531 36.40625 L 228.746094 36.414062 L 231.113281 38.917969 L 232.265625 38.917969 Z M 235.792969 37.660156 L 235.792969 36.410156 L 234.640625 36.410156 L 234.640625 37.660156 Z M 308.171875 36.40625 L 308.171875 37.035156 C 308.9375 36.824219 308.9375 36.617188 308.171875 36.40625 Z M 356.996094 36.410156 L 354.65625 36.410156 C 354.65625 36.410156 354.660156 38.292969 354.660156 38.292969 L 356.992188 37.339844 Z M 156.957031 38.917969 L 156.957031 37.667969 L 155.804688 37.667969 L 155.804688 38.917969 Z M 159.910156 37.664062 L 159.910156 38.292969 C 160.675781 38.082031 160.675781 37.875 159.910156 37.664062 Z M 281.691406 37.671875 L 279.347656 37.671875 L 279.347656 38.285156 L 281.691406 38.285156 Z M 192.269531 39.554688 C 188.550781 40.070312 186.957031 40.835938 182.863281 40.492188 L 188.089844 41.457031 L 192.269531 39.558594 Z M 364.058594 39.554688 L 361.714844 39.554688 L 361.714844 40.804688 L 364.058594 40.804688 Z M 243.453125 40.179688 L 243.453125 40.808594 C 244.21875 40.597656 244.21875 40.390625 243.453125 40.179688 Z M 115.785156 42.058594 L 114.003906 40.8125 L 112.257812 40.8125 L 114.039062 42.058594 Z M 254.632812 42.058594 L 252.292969 40.808594 L 252.285156 42.0625 Z M 354.0625 40.808594 L 354.0625 41.4375 C 354.824219 41.226562 354.824219 41.019531 354.0625 40.808594 Z M 375.824219 41.445312 L 372.3125 40.808594 L 372.304688 42.0625 L 375.824219 42.058594 Z M 141.660156 42.691406 L 141.660156 41.441406 L 140.507812 41.441406 L 140.507812 42.691406 Z M 181.667969 42.691406 L 181.667969 41.441406 L 180.515625 41.441406 L 180.515625 42.691406 Z M 402.894531 42.6875 L 400.550781 41.4375 L 400.546875 42.691406 Z M 282.867188 42.074219 L 280.527344 42.074219 L 280.527344 42.6875 L 282.867188 42.6875 Z M 349.5 53.164062 C 350.378906 52.324219 349.964844 51.238281 350.832031 50.414062 C 351.925781 49.375 360.496094 43.332031 359.34375 42.695312 L 351.691406 45.835938 L 347.601562 43.957031 L 348.484375 46.707031 L 345.863281 48.375 L 334.648438 49.617188 L 340.523438 50.550781 L 335.4375 53.851562 L 332.3125 54.03125 L 332.417969 56.789062 L 328.753906 57.164062 C 331.09375 60.25 328.242188 64.09375 321.710938 64.714844 L 324.140625 65.683594 L 318.359375 70.167969 L 318.179688 74.765625 L 321.699219 74.773438 L 321.691406 72.246094 L 326.421875 72.257812 L 326.507812 69.765625 L 329.957031 69.734375 L 329.261719 67.851562 L 336.976562 64.707031 L 338.679688 66.449219 L 342.882812 65.957031 L 338.144531 62.503906 L 342.300781 59.046875 L 342.988281 60.21875 L 346.410156 59.355469 L 342.90625 58.109375 C 342.824219 57.664062 348.671875 53.957031 349.5 53.164062 Z M 373.472656 42.699219 L 369.953125 42.699219 C 368.6875 46.59375 375.066406 43.457031 373.472656 42.699219 Z M 105.195312 45.203125 L 103.4375 43.328125 L 101.691406 44.265625 L 103.449219 45.203125 Z M 225.210938 45.207031 L 225.203125 44.277344 L 223.453125 43.335938 L 221.710938 44.265625 L 223.46875 45.203125 Z M 368.765625 43.328125 L 366.421875 43.328125 L 366.421875 44.578125 L 368.765625 44.578125 Z M 182.84375 45.207031 L 182.84375 43.957031 L 181.691406 43.957031 L 181.691406 45.207031 Z M 240.507812 44.585938 L 238.164062 44.585938 L 238.164062 45.203125 L 240.507812 45.203125 Z M 361.703125 44.585938 L 359.363281 44.585938 L 359.363281 45.203125 L 361.703125 45.203125 Z M 136.378906 45.210938 L 136.378906 45.839844 C 137.140625 45.628906 137.140625 45.417969 136.378906 45.210938 Z M 179.320312 48.351562 C 179.492188 47.152344 179.640625 45.59375 176.984375 45.210938 L 176.980469 48.351562 Z M 193.441406 45.214844 L 191.097656 45.214844 L 191.097656 45.832031 L 193.441406 45.832031 Z M 297.582031 45.210938 L 297.582031 45.839844 C 298.347656 45.628906 298.347656 45.417969 297.582031 45.210938 Z M 313.460938 45.214844 L 311.113281 45.214844 L 312.882812 46.464844 Z M 85.78125 45.839844 L 85.78125 46.46875 C 86.546875 46.257812 86.546875 46.046875 85.78125 45.839844 Z M 105.191406 47.09375 L 105.183594 45.839844 L 102.847656 46.785156 Z M 226.386719 45.84375 L 224.644531 45.84375 L 222.863281 47.089844 L 226.386719 47.09375 Z M 229.917969 45.84375 L 227.578125 45.84375 L 227.578125 47.09375 L 229.917969 47.09375 Z M 346.40625 45.84375 L 344.066406 45.84375 L 344.066406 47.09375 L 346.40625 47.09375 Z M 314.632812 48.351562 L 314.632812 47.101562 L 313.480469 47.101562 L 313.480469 48.351562 Z M 97.546875 47.726562 L 97.546875 48.355469 C 98.3125 48.144531 98.3125 47.933594 97.546875 47.726562 Z M 182.851562 47.730469 L 180.507812 47.730469 L 180.507812 48.347656 L 182.851562 48.347656 Z M 218.746094 47.726562 L 218.746094 48.355469 C 219.507812 48.144531 219.507812 47.933594 218.746094 47.726562 Z M 227.570312 47.730469 L 220.519531 49.933594 L 220.523438 50.871094 L 224.027344 49.613281 L 224.03125 50.546875 C 220.199219 53.003906 217.417969 54.347656 211.089844 54.019531 L 210.496094 57.773438 L 214.011719 56.523438 L 218.746094 60.289062 L 220.523438 57.160156 L 215.800781 57.15625 L 217.296875 54.808594 L 221.753906 54.296875 L 227.5625 55.898438 L 225.109375 52.804688 L 221.6875 53.378906 Z M 233.445312 48.980469 L 232.871094 47.730469 L 231.101562 48.976562 Z M 276.996094 66.585938 C 281.414062 66.949219 283.59375 63.839844 285.714844 62.136719 C 291.210938 57.734375 296.570312 52.761719 299.335938 47.726562 C 296.046875 49.503906 289.265625 51.308594 287.082031 53.433594 C 284.941406 55.523438 284.675781 58.757812 282.792969 61.039062 C 282.160156 61.804688 280.359375 61.789062 279.582031 62.628906 C 278.511719 63.78125 279.421875 65.148438 279.125 65.679688 C 278.8125 66.238281 276.488281 65.546875 276.996094 66.585938 Z M 302.289062 47.726562 L 302.289062 48.355469 C 303.050781 48.144531 303.050781 47.933594 302.289062 47.726562 Z M 311.703125 47.726562 L 311.703125 48.355469 C 312.464844 48.144531 312.464844 47.933594 311.703125 47.726562 Z M 338.765625 47.726562 L 338.765625 48.355469 C 339.53125 48.144531 339.53125 47.933594 338.765625 47.726562 Z M 241.691406 48.359375 L 239.941406 48.359375 C 239.941406 48.359375 238.183594 49.296875 238.183594 49.296875 L 239.929688 50.238281 Z M 361.710938 48.359375 L 359.363281 48.359375 L 359.367188 50.238281 L 360.519531 50.238281 Z M 77.542969 48.984375 L 77.542969 49.613281 C 78.308594 49.402344 78.308594 49.191406 77.542969 48.984375 Z M 88.71875 48.988281 L 86.375 48.988281 L 86.375 49.605469 L 88.71875 49.605469 Z M 208.15625 48.984375 L 208.15625 49.613281 C 208.917969 49.402344 208.917969 49.191406 208.15625 48.984375 Z M 128.730469 50.863281 L 126.964844 49.625 L 125.207031 50.558594 Z M 173.4375 50.867188 L 173.429688 49.613281 L 171.09375 50.558594 Z M 215.203125 49.625 C 214.039062 50.0625 215.835938 50.488281 216.402344 50.855469 C 217.574219 50.445312 215.855469 50.023438 215.203125 49.625 Z M 368.765625 50.246094 L 366.421875 50.246094 L 366.421875 50.863281 L 368.765625 50.863281 Z M 354.648438 51.503906 L 352.902344 51.503906 L 351.121094 52.75 L 352.867188 52.75 Z M 169.335938 52.140625 L 164.054688 54.964844 L 164.605469 55.257812 L 169.890625 52.4375 Z M 88.132812 52.757812 L 88.132812 53.386719 C 88.898438 53.175781 88.898438 52.964844 88.132812 52.757812 Z M 117.550781 52.757812 L 117.550781 53.386719 C 118.316406 53.175781 118.316406 52.964844 117.550781 52.757812 Z M 208.15625 52.757812 L 208.15625 53.386719 C 208.917969 53.175781 208.917969 52.964844 208.15625 52.757812 Z M 239.332031 52.761719 L 236.988281 52.761719 L 236.988281 53.378906 L 239.332031 53.378906 Z M 365.242188 69.105469 C 367.128906 67.753906 368.339844 65.71875 370.640625 64.132812 C 372.90625 62.570312 385.378906 56.074219 382.882812 54.644531 L 377.015625 55.898438 L 378.183594 54.019531 L 373.003906 54.667969 L 369.972656 53.0625 L 369.957031 57.78125 L 374.066406 55.285156 C 378.582031 57.082031 370.746094 59.945312 366.65625 59.78125 L 367.605469 63.117188 C 362.640625 64.203125 362.117188 65.09375 360.222656 67.683594 L 351.121094 68.484375 L 355.824219 71.296875 C 351.878906 73.863281 347.023438 74.296875 341.886719 75.453125 L 342.792969 79.105469 C 334.886719 80.351562 333.796875 83 333.628906 86.964844 C 325.234375 87.03125 325.5 92.667969 321.058594 94.917969 C 319.984375 95.464844 318.476562 94.894531 318.332031 94.988281 C 317.785156 95.34375 316.664062 98.378906 315.527344 99.449219 C 313.601562 101.265625 309.253906 105.246094 305.238281 104.957031 L 307.671875 105.925781 L 305.234375 109.976562 C 307.339844 111.019531 314.429688 106.753906 315.792969 105.882812 C 325.226562 99.839844 334.535156 88.871094 344.082031 83.839844 C 346.074219 82.789062 348.75 83.53125 350.625 82.324219 C 351.679688 81.359375 349.84375 80.300781 350.523438 79.195312 C 351.476562 77.640625 360.386719 71.371094 362.855469 69.546875 C 363.671875 68.941406 365.164062 69.160156 365.242188 69.105469 L 365.246094 70.359375 L 366.988281 70.359375 C 368.257812 69.796875 369.148438 69.402344 368.757812 68.476562 Z M 154.609375 55.269531 L 154.605469 54.015625 L 152.269531 54.960938 Z M 365.828125 54.015625 L 365.828125 54.644531 C 366.59375 54.433594 366.59375 54.222656 365.828125 54.015625 Z M 394.070312 54.644531 L 394.070312 55.273438 C 394.832031 55.0625 394.832031 54.851562 394.070312 54.644531 Z M 126.371094 55.277344 L 124.027344 55.277344 L 124.027344 55.894531 L 126.371094 55.894531 Z M 366.410156 55.277344 L 364.070312 55.277344 L 364.070312 55.894531 L 366.410156 55.894531 Z M 164.03125 55.90625 L 160.632812 55.980469 L 159.324219 57.78125 L 161.070312 57.78125 Z M 67.535156 56.535156 L 65.195312 56.535156 L 65.195312 57.152344 L 67.535156 57.152344 Z M 112.269531 58.414062 L 115.761719 56.835938 L 115.210938 56.542969 L 112.261719 57.160156 Z M 130.496094 56.53125 L 130.496094 57.160156 C 131.257812 56.949219 131.257812 56.738281 130.496094 56.53125 Z M 187.558594 56.535156 L 185.214844 56.535156 L 185.214844 57.152344 L 187.558594 57.152344 Z M 153.445312 60.296875 L 159.300781 58.730469 L 155.195312 57.175781 L 153.449219 59.042969 L 156.964844 58.726562 Z M 234.042969 57.160156 L 234.042969 57.789062 C 234.804688 57.578125 234.804688 57.367188 234.042969 57.160156 Z M 275.800781 58.414062 L 275.800781 57.160156 L 274.648438 57.160156 L 274.648438 58.414062 Z M 397.011719 58.410156 L 394.667969 57.160156 L 394.664062 58.414062 Z M 148.714844 59.046875 L 146.363281 59.367188 L 149.320312 62.804688 Z M 225.210938 59.046875 L 222.871094 59.046875 L 222.871094 60.300781 L 225.210938 60.300781 Z M 68.132812 59.671875 L 68.132812 60.300781 C 68.894531 60.09375 68.894531 59.882812 68.132812 59.671875 Z M 145.199219 62.816406 L 144.007812 60.300781 L 140.664062 61.019531 L 140.5 62.816406 Z M 211.089844 60.9375 L 208.75 60.9375 L 208.75 61.554688 L 211.089844 61.554688 Z M 227.566406 60.9375 L 224.03125 60.933594 L 224.863281 62.398438 L 222.875 64.703125 C 226.625 64.25 227.164062 62.800781 227.566406 60.9375 Z M 276.984375 60.9375 L 274.644531 60.9375 L 274.644531 61.554688 L 276.984375 61.554688 Z M 347.578125 62.816406 L 346.417969 61.242188 L 344.0625 60.9375 Z M 389.363281 60.929688 L 389.363281 61.558594 C 390.125 61.351562 390.125 61.140625 389.363281 60.929688 Z M 396.421875 60.929688 L 396.421875 61.558594 C 397.1875 61.351562 397.1875 61.140625 396.421875 60.929688 Z M 205.207031 62.195312 L 202.867188 62.195312 L 202.867188 62.8125 L 205.207031 62.8125 Z M 326.402344 62.195312 L 324.0625 62.195312 L 324.0625 62.8125 L 326.402344 62.8125 Z M 111.074219 64.074219 L 111.066406 62.816406 L 108.730469 63.765625 Z M 214.621094 62.824219 L 212.277344 62.824219 L 212.277344 63.441406 L 214.621094 63.441406 Z M 145.199219 63.453125 L 141.679688 63.453125 L 141.679688 64.070312 L 145.199219 64.070312 Z M 219.257812 63.488281 L 215.832031 64.386719 C 217.824219 66.765625 218.515625 66.417969 222.863281 65.957031 Z M 232.269531 63.453125 L 229.929688 63.453125 L 229.929688 64.070312 L 232.269531 64.070312 Z M 352.289062 63.453125 L 349.949219 63.453125 L 349.949219 64.070312 L 352.289062 64.070312 Z M 125.195312 64.078125 L 122.851562 64.078125 L 122.851562 65.960938 L 125.195312 65.960938 Z M 245.214844 64.710938 L 242.871094 64.710938 L 242.871094 65.328125 L 245.214844 65.328125 Z M 121.65625 67.21875 L 121.65625 65.964844 L 120.503906 65.964844 L 120.503906 67.21875 Z M 82.25 67.21875 L 82.25 67.847656 C 83.015625 67.640625 83.015625 67.429688 82.25 67.21875 Z M 218.15625 67.226562 L 215.808594 67.222656 L 215.816406 69.105469 L 216.964844 69.101562 Z M 338.171875 67.226562 L 335.828125 67.226562 L 335.828125 67.84375 L 338.171875 67.84375 Z M 345.230469 67.222656 L 341.710938 68.167969 L 342.875 69.730469 Z M 278.167969 69.101562 L 275.824219 67.847656 L 275.820312 69.101562 Z M 114.597656 70.363281 L 114.027344 69.105469 L 111.085938 68.480469 L 111.082031 69.726562 Z M 119.304688 70.359375 L 119.304688 69.429688 L 117.539062 68.492188 L 118.152344 70.359375 Z M 336.410156 68.476562 L 336.410156 69.105469 C 337.175781 68.898438 337.175781 68.6875 336.410156 68.476562 Z M 133.429688 69.109375 L 131.089844 69.109375 L 131.089844 70.359375 L 133.429688 70.359375 Z M 64.007812 69.742188 L 61.664062 69.742188 L 61.664062 70.359375 L 64.007812 70.359375 Z M 219.328125 69.742188 L 216.984375 69.742188 L 216.984375 70.359375 L 219.328125 70.359375 Z M 339.347656 69.742188 L 337.007812 69.742188 L 337.007812 70.359375 L 339.347656 70.359375 Z M 102.832031 71.617188 L 102.832031 70.367188 L 101.679688 70.367188 L 101.679688 71.617188 Z M 194.617188 70.371094 L 192.277344 70.371094 L 192.277344 70.988281 L 194.617188 70.988281 Z M 222.851562 71.617188 L 222.851562 70.367188 L 221.699219 70.367188 L 221.699219 71.617188 Z M 112.246094 72.246094 L 112.246094 70.996094 L 111.089844 70.996094 L 111.089844 72.246094 Z M 345.234375 70.996094 L 341.742188 71.449219 L 340.542969 74.765625 C 344.296875 74.316406 344.828125 72.859375 345.234375 70.996094 Z M 381.125 70.992188 L 381.125 71.621094 C 381.890625 71.414062 381.890625 71.203125 381.125 70.992188 Z M 62.832031 71.628906 L 60.488281 71.628906 L 60.488281 72.246094 L 62.832031 72.246094 Z M 116.957031 71.625 L 108.722656 76.339844 L 105.777344 79.792969 L 105.183594 76.019531 L 100.496094 75.398438 L 102.839844 79.792969 L 99.253906 79.46875 L 96.964844 82.308594 L 99.324219 81.054688 L 100.496094 82.945312 L 105.800781 81.058594 L 107.5625 82.308594 L 109.199219 79.171875 Z M 122.257812 71.621094 L 122.257812 72.25 C 123.023438 72.042969 123.023438 71.832031 122.257812 71.621094 Z M 104.011719 72.253906 L 102.273438 72.257812 L 100.5 73.199219 L 100.5 74.765625 L 104.007812 73.183594 Z M 224.035156 72.253906 L 222.292969 72.257812 L 220.511719 73.503906 L 224.035156 73.503906 Z M 93.441406 74.765625 L 95.769531 73.8125 L 95.769531 72.878906 L 93.441406 73.832031 Z M 215.792969 74.132812 L 215.792969 72.882812 L 214.636719 72.882812 L 214.636719 74.132812 Z M 336.996094 72.882812 L 334.640625 73.191406 L 333.476562 74.761719 L 335.828125 74.457031 Z M 149.90625 77.285156 L 148.746094 73.511719 L 146.378906 77.277344 Z M 108.71875 75.390625 L 108.714844 74.136719 L 106.378906 75.082031 Z M 153.433594 74.144531 L 151.09375 74.144531 L 151.09375 74.761719 L 153.433594 74.761719 Z M 221.679688 74.144531 L 219.339844 74.144531 L 219.339844 74.761719 L 221.679688 74.761719 Z M 268.734375 77.277344 L 269.921875 74.769531 C 268.125 74.621094 268.367188 76.359375 266.40625 76.972656 Z M 280.507812 76.652344 L 280.507812 75.71875 L 278.179688 74.765625 L 278.179688 75.699219 Z M 99.3125 75.402344 L 97.566406 75.402344 C 97.566406 75.402344 95.804688 76.339844 95.804688 76.339844 L 97.554688 77.277344 Z M 160.492188 75.402344 L 158.152344 75.402344 L 158.152344 76.019531 L 160.492188 76.019531 Z M 189.917969 76.648438 L 188.132812 75.402344 L 186.394531 75.398438 L 186.390625 76.648438 Z M 219.332031 75.402344 L 216.984375 75.398438 L 216.984375 77.277344 L 219.332031 77.277344 Z M 222.855469 75.402344 L 220.515625 75.402344 L 220.515625 76.019531 L 222.855469 76.019531 Z M 316.992188 75.398438 L 314.648438 75.398438 L 314.648438 76.648438 L 316.992188 76.648438 Z M 339.347656 75.398438 L 337.007812 75.398438 C 337.007812 75.398438 337.011719 76.328125 337.011719 76.328125 L 338.769531 77.277344 Z M 51.070312 77.277344 L 49.285156 76.03125 L 47.539062 76.03125 L 49.320312 77.277344 Z M 309.347656 76.023438 L 309.347656 76.652344 C 310.113281 76.445312 310.113281 76.234375 309.347656 76.023438 Z M 335.8125 79.796875 L 335.296875 77.878906 L 331.695312 76.664062 L 331.140625 76.960938 Z M 85.78125 77.28125 L 85.78125 77.910156 C 86.546875 77.699219 86.546875 77.492188 85.78125 77.28125 Z M 93.421875 77.289062 L 89.90625 77.285156 L 89.910156 78.539062 L 93.421875 77.902344 Z M 207.566406 77.289062 L 204.042969 77.285156 L 204.042969 78.535156 L 205.785156 78.53125 Z M 94.019531 79.167969 L 94.019531 79.796875 C 94.78125 79.585938 94.78125 79.378906 94.019531 79.167969 Z M 309.347656 80.425781 L 309.347656 81.054688 C 310.113281 80.84375 310.113281 80.636719 309.347656 80.425781 Z M 95.777344 81.6875 L 93.429688 81.691406 L 95.199219 82.9375 Z M 114.019531 82.3125 L 114.019531 82.941406 C 114.785156 82.730469 114.785156 82.523438 114.019531 82.3125 Z M 175.808594 84.828125 L 179.316406 83.246094 L 179.316406 82.3125 L 175.945312 83.011719 Z M 84.605469 82.941406 L 84.605469 83.570312 C 85.367188 83.359375 85.367188 83.152344 84.605469 82.941406 Z M 94.605469 85.449219 L 91.671875 82.945312 L 89.910156 83.894531 L 89.902344 84.820312 Z M 66.953125 83.570312 L 66.953125 84.199219 C 67.71875 83.988281 67.71875 83.78125 66.953125 83.570312 Z M 332.289062 83.574219 L 329.941406 83.578125 L 331.710938 84.824219 Z M 79.898438 84.199219 L 79.898438 84.828125 C 80.660156 84.617188 80.660156 84.410156 79.898438 84.199219 Z M 353.46875 86.082031 L 352.890625 84.832031 L 351.121094 86.078125 Z M 232.269531 85.464844 L 229.929688 85.464844 L 229.929688 86.078125 L 232.269531 86.078125 Z M 166.972656 89.230469 L 166.972656 89.859375 C 167.734375 89.648438 167.734375 89.441406 166.972656 89.230469 Z M 120.480469 98.664062 L 120.480469 97.730469 L 118.152344 96.777344 L 118.152344 97.710938 Z M 41.066406 98.035156 L 41.066406 98.664062 C 41.832031 98.453125 41.832031 98.242188 41.066406 98.035156 Z M 105.785156 98.035156 L 105.785156 98.664062 C 106.546875 98.453125 106.546875 98.242188 105.785156 98.035156 Z M 35.765625 99.917969 L 35.191406 98.664062 L 33.417969 99.914062 Z M 127.550781 99.296875 C 123.007812 99.890625 119.144531 100.582031 115.179688 98.679688 L 112.613281 100.566406 L 107.550781 100.554688 C 110.332031 102.027344 109.878906 103.675781 105.804688 104.34375 L 102.917969 103.296875 L 102.273438 100.554688 L 100.847656 103.265625 L 103.941406 105.808594 L 100.5 107.464844 L 101.664062 104.957031 L 98.671875 105.570312 L 99.242188 108.648438 L 89.851562 112.207031 L 86.386719 111.867188 C 86.78125 114.582031 80.691406 115.433594 77.441406 116.90625 L 78.128906 118.78125 L 73.429688 118.164062 L 74.597656 120.039062 L 69.898438 119.421875 L 69.285156 121.304688 L 65.191406 120.679688 L 71.078125 124.128906 L 66.378906 123.1875 C 65.65625 124.316406 68.214844 124.695312 68.296875 125.378906 C 68.390625 126.132812 66.066406 128.980469 64.015625 129.148438 C 68.140625 131.648438 62.121094 134.460938 63.125 137.488281 L 64.59375 138.894531 L 86.964844 133.25 C 87.941406 135.046875 88.871094 134.921875 91.070312 133.5625 L 85.890625 132.597656 L 82.828125 133.5625 C 85.453125 131.21875 90.625 123.292969 94.578125 122.320312 C 95.792969 122.019531 98.132812 122.820312 99.308594 121.613281 L 96.917969 120.992188 C 95.800781 118.203125 105.613281 117.460938 104.738281 121.007812 L 99.320312 122.566406 L 101.65625 124.445312 L 96.960938 123.191406 L 97.574219 125.105469 L 92.804688 126.929688 L 95.777344 130.421875 L 92.238281 130.738281 L 93.441406 133.25 L 101.667969 130.097656 L 99.316406 128.53125 L 101.574219 127.945312 L 100.492188 126.335938 L 105.195312 126.339844 L 102.847656 127.90625 L 105.179688 128.21875 C 105.195312 123.453125 108.898438 121.039062 113.628906 117.292969 C 114.589844 116.535156 119.757812 113.960938 120.246094 113.328125 C 121.832031 111.285156 122.117188 108.3125 124.011719 106.210938 L 119.605469 106.988281 L 116.5 111.933594 L 111.070312 112.503906 L 110.800781 116.742188 L 104.613281 116.246094 L 104.011719 117.519531 L 101.675781 116.59375 Z M 48.703125 100.550781 C 41.207031 101.625 30.84375 101.40625 24.019531 99.292969 L 14.597656 111.234375 C 15.132812 111.5 23.804688 110.097656 25.425781 109.796875 C 31.019531 108.761719 43.179688 106.402344 46.394531 104.027344 C 47.171875 103.453125 49.339844 100.984375 48.703125 100.550781 Z M 56.953125 101.171875 L 55.234375 100.125 L 51.074219 100.554688 L 51.074219 101.171875 Z M 226.980469 99.921875 L 226.980469 100.550781 C 227.746094 100.339844 227.746094 100.128906 226.980469 99.921875 Z M 232.265625 100.546875 L 228.757812 100.550781 L 228.757812 101.484375 L 231.695312 103.0625 Z M 308.753906 100.550781 L 306.40625 100.554688 L 308.175781 101.804688 L 308.753906 100.554688 Z M 159.910156 101.808594 L 159.910156 102.4375 C 160.675781 102.226562 160.675781 102.015625 159.910156 101.808594 Z M 72.25 104.945312 L 69.90625 103.695312 L 69.902344 104.949219 Z M 343.460938 103.707031 C 342.296875 104.144531 344.09375 104.570312 344.660156 104.9375 C 345.828125 104.527344 344.113281 104.105469 343.460938 103.707031 Z M 66.367188 105.574219 L 69.871094 105.902344 L 68.707031 104.324219 Z M 125.199219 105.574219 L 123.417969 104.328125 L 121.675781 104.324219 L 121.675781 105.578125 Z M 14.585938 105.582031 L 11.070312 105.585938 L 11.070312 106.203125 L 14.582031 106.835938 Z M 161.671875 106.214844 L 159.328125 106.214844 L 159.328125 106.832031 L 161.671875 106.832031 Z M 13.410156 108.722656 C 14.058594 108.398438 12.628906 106.960938 11.632812 106.839844 C 6.640625 106.238281 10.511719 110.164062 13.410156 108.722656 Z M 253.449219 106.839844 L 251.097656 107.148438 L 249.933594 108.722656 L 252.285156 108.414062 Z M 130.496094 107.46875 L 130.496094 108.09375 C 131.257812 107.886719 131.257812 107.675781 130.496094 107.46875 Z M 224.027344 108.722656 L 224.027344 107.46875 L 222.875 107.46875 L 222.875 108.722656 Z M 6.945312 108.09375 L 6.945312 108.722656 C 7.707031 108.515625 7.707031 108.304688 6.945312 108.09375 Z M 248.742188 108.101562 L 246.402344 108.101562 L 246.402344 108.71875 L 248.742188 108.71875 Z M 249.921875 109.988281 L 247.578125 109.988281 L 247.578125 110.605469 L 249.921875 110.605469 Z M 112.246094 111.867188 L 112.246094 110.613281 L 111.089844 110.613281 L 111.089844 111.867188 Z M 74.597656 111.242188 L 72.253906 111.242188 L 72.253906 112.496094 L 74.597656 112.496094 Z M 78.121094 112.496094 L 78.121094 111.242188 L 76.96875 111.242188 L 76.96875 112.496094 Z M 302.289062 111.867188 L 302.289062 112.496094 C 303.050781 112.289062 303.050781 112.078125 302.289062 111.867188 Z M 311.703125 111.867188 L 311.703125 112.496094 C 312.464844 112.289062 312.464844 112.078125 311.703125 111.867188 Z M 339.339844 113.125 L 339.339844 111.871094 L 338.1875 111.871094 L 338.1875 113.125 Z M 15.179688 112.496094 L 15.179688 113.125 C 15.945312 112.917969 15.945312 112.707031 15.179688 112.496094 Z M 79.304688 113.128906 L 76.957031 113.132812 L 78.726562 114.382812 Z M 240.5 114.382812 L 240.5 113.128906 L 239.347656 113.128906 L 239.347656 114.382812 Z M 109.902344 115.019531 L 107.554688 115.015625 L 107.5625 116.269531 Z M 328.75 117.523438 L 328.75 115.015625 L 327.597656 115.015625 L 327.597656 117.523438 Z M 239.332031 116.90625 L 236.988281 116.90625 L 236.988281 117.523438 L 239.332031 117.523438 Z M 154.609375 118.792969 L 152.269531 118.792969 L 152.269531 119.410156 L 154.609375 119.410156 Z M 148.144531 119.414062 L 148.144531 120.042969 C 148.910156 119.835938 148.910156 119.625 148.144531 119.414062 Z M 156.96875 121.308594 L 153.453125 120.671875 L 153.453125 123.1875 C 153.453125 123.1875 156.96875 121.308594 156.96875 121.308594 Z M 219.332031 121.308594 L 216.984375 121.304688 L 216.992188 122.558594 Z M 235.800781 121.308594 L 233.460938 121.308594 L 233.460938 121.925781 L 235.800781 121.925781 Z M 65.183594 124.441406 L 65.179688 123.511719 L 63.414062 122.570312 L 62.835938 124.441406 Z M 138.132812 123.8125 L 138.132812 122.5625 L 136.976562 122.5625 L 136.976562 123.8125 Z M 144.613281 122.558594 L 144.613281 123.1875 C 145.378906 122.980469 145.378906 122.769531 144.613281 122.558594 Z M 61.652344 123.195312 L 59.3125 123.195312 L 59.3125 123.8125 L 61.652344 123.8125 Z M 122.839844 123.191406 L 120.5 123.191406 L 120.5 124.441406 L 122.839844 124.441406 Z M 306.984375 123.199219 C 305.820312 123.636719 307.617188 124.066406 308.183594 124.433594 C 309.351562 124.019531 307.636719 123.601562 306.984375 123.199219 Z M 155.789062 123.824219 L 153.445312 123.824219 L 153.445312 124.441406 L 155.789062 124.441406 Z M 269.925781 126.328125 L 269.917969 124.765625 L 268.152344 123.828125 L 267.578125 126.328125 Z M 304.640625 123.816406 L 304.640625 124.445312 C 305.40625 124.234375 305.40625 124.027344 304.640625 123.816406 Z M 214.039062 124.445312 L 214.039062 125.074219 C 214.800781 124.863281 214.800781 124.65625 214.039062 124.445312 Z M 326.402344 124.453125 L 324.0625 124.453125 L 324.0625 125.070312 L 326.402344 125.070312 Z M 145.191406 129.476562 L 141.683594 125.074219 L 141.730469 128.457031 Z M 211.089844 126.328125 L 211.085938 125.074219 L 208.75 126.019531 Z M 276.984375 125.082031 L 274.644531 125.082031 L 274.644531 125.695312 L 276.984375 125.695312 Z M 205.207031 126.339844 L 202.867188 126.339844 L 202.867188 126.953125 L 205.207031 126.953125 Z M 111.066406 128.84375 L 111.066406 127.59375 L 109.914062 127.59375 L 109.914062 128.84375 Z M 318.167969 127.59375 L 315.828125 127.59375 L 315.828125 129.472656 L 318.167969 129.472656 Z M 140.496094 128.226562 L 138.148438 128.222656 L 138.15625 129.476562 Z M 90.488281 128.847656 L 90.488281 129.476562 C 91.253906 129.265625 91.253906 129.058594 90.488281 128.847656 Z M 124.011719 130.101562 L 124.011719 128.851562 L 122.859375 128.851562 L 122.859375 130.101562 Z M 161.089844 129.476562 L 161.089844 130.105469 C 161.851562 129.894531 161.851562 129.6875 161.089844 129.476562 Z M 90.488281 130.734375 L 90.488281 131.363281 C 91.253906 131.152344 91.253906 130.945312 90.488281 130.734375 Z M 138.136719 130.742188 L 135.796875 130.742188 L 135.796875 131.355469 L 138.136719 131.355469 Z M 61.070312 131.363281 L 61.070312 131.992188 C 61.835938 131.78125 61.835938 131.574219 61.070312 131.363281 Z M 132.253906 132.617188 L 132.246094 131.363281 L 129.914062 132.308594 Z M 125.789062 131.992188 L 125.789062 132.621094 C 126.550781 132.410156 126.550781 132.203125 125.789062 131.992188 Z M 117.550781 132.621094 L 117.550781 133.25 C 118.316406 133.039062 118.316406 132.832031 117.550781 132.621094 Z M 61.648438 134.503906 L 61.648438 133.253906 L 60.496094 133.253906 L 60.496094 134.503906 Z M 128.726562 133.253906 L 124.046875 133.558594 L 127.542969 135.136719 Z M 96.972656 135.136719 L 100.464844 134.828125 L 98.707031 133.886719 L 96.964844 133.882812 Z M 114.019531 133.878906 L 114.019531 134.507812 C 114.785156 134.296875 114.785156 134.089844 114.019531 133.878906 Z M 62.246094 135.765625 L 62.246094 136.394531 C 63.011719 136.183594 63.011719 135.976562 62.246094 135.765625 Z M 124.015625 135.773438 L 121.675781 135.773438 L 121.675781 136.386719 L 124.015625 136.386719 Z M 81.65625 138.914062 L 79.316406 138.914062 L 79.316406 139.53125 L 81.65625 139.53125 Z M 69.890625 140.171875 L 67.546875 140.171875 L 67.546875 140.789062 L 69.890625 140.789062 Z M 82.25 140.167969 L 82.25 140.796875 C 83.015625 140.585938 83.015625 140.378906 82.25 140.167969 Z M 69.890625 144.574219 L 67.546875 144.574219 L 67.546875 145.191406 L 69.890625 145.191406 Z M 69.890625 144.574219 " fill-opacity="1" fill-rule="nonzero"/></g><path fill="#a41f13" d="M 379.335938 76.761719 L 375.632812 87.878906 L 360.785156 97.289062 L 342.660156 105.796875 L 318.632812 107.660156 L 298.546875 115.824219 L 274.605469 116.789062 L 252.097656 122.847656 L 227.363281 116.875 L 204.015625 123.320312 L 180.324219 120.394531 L 156.773438 118.957031 L 132.652344 119.164062 L 111.53125 111.484375 L 86.21875 112.535156 L 66.644531 104.378906 L 41.277344 101.625 L 33.214844 87.566406 L 27.589844 76.761719 L 25.859375 63.207031 L 49.832031 58.121094 L 64.378906 46.640625 L 87.546875 43.019531 L 109.199219 37.105469 L 133.53125 37.0625 L 156.777344 34.703125 L 180.203125 32.117188 L 204.015625 31.378906 L 227.667969 33.496094 L 251.4375 33.695312 L 274.132812 38.136719 L 297.269531 40.402344 L 319.054688 45.226562 L 341.238281 49.308594 L 365.597656 52.738281 L 374.652344 66.019531 Z M 379.335938 76.761719 " fill-opacity="1" fill-rule="nonzero"/><g mask="url(#243c9732e6)"><g transform="matrix(1, 0, 0, 1, 32, 34)"><g clip-path="url(#777a43c58c)"><g clip-path="url(#ebaf562a83)"><path fill="#faf5f1" d="M 314.78125 69.863281 L 328.785156 63.289062 L 343.632812 53.878906 L 344.695312 50.6875 L 343.042969 43.847656 L 339.945312 41.6875 C 335.269531 47.113281 329.890625 50.429688 324.941406 54.832031 C 324.359375 55.347656 324.242188 57.101562 323.648438 57.683594 C 320.730469 60.53125 318.769531 61.253906 315.765625 57.78125 C 315.3125 56.746094 318.710938 35.992188 319.496094 33.144531 C 320.515625 29.421875 323.625 23.460938 325.894531 17.652344 L 312.554688 15.773438 C 304.902344 28.988281 297.703125 45.414062 287.75 55.449219 C 284.042969 59.1875 279.660156 62.507812 275.429688 59.035156 C 277.078125 41.460938 283.519531 25.488281 290.472656 11.855469 L 287.054688 11.226562 L 279.742188 9.605469 C 277.414062 13.8125 275.304688 17.785156 274.480469 19.21875 C 268.058594 30.359375 262.816406 39.957031 254.796875 49.605469 C 250.472656 54.808594 246.179688 62.203125 240.636719 60.628906 C 240.1875 59.949219 243.003906 46.351562 243.554688 44.324219 C 246.808594 32.382812 251.910156 29.121094 255.238281 19.78125 C 256.578125 16.019531 258.203125 12.535156 257.390625 7.886719 L 255.667969 5.460938 L 250.324219 4.9375 C 236.574219 29.101562 224.105469 58.871094 204.605469 70.574219 L 197.007812 69.359375 C 197.550781 56.34375 201.101562 43.898438 205.550781 33.136719 C 208.445312 26.140625 217.597656 14.242188 214.375 5.355469 C 213.574219 3.140625 210.066406 1.472656 208.589844 3.15625 C 203.382812 13.03125 198.121094 24.460938 192.140625 33.042969 C 188.972656 37.589844 184.773438 41 181.863281 45.335938 C 179.378906 49.03125 178.039062 54.660156 175.074219 57.511719 C 171.820312 60.632812 160.273438 65.097656 157.761719 60.046875 L 157.085938 54.433594 L 171.933594 11.574219 C 172.34375 7.109375 169.988281 2.949219 167.320312 2.695312 C 162.375 10.601562 157.476562 18.570312 152.441406 26.296875 C 141.125 43.652344 134.332031 55.175781 119.28125 65.242188 C 117.578125 66.382812 115.828125 67.980469 113.925781 67.757812 C 112.695312 67.179688 111.664062 63.414062 111.652344 61.382812 C 111.648438 60.597656 113.488281 47.40625 113.765625 46.058594 C 116.226562 34.15625 123.679688 21.171875 127.429688 10.125 C 127.597656 5.027344 127.019531 2.039062 125.984375 0.570312 L 124.777344 0.703125 L 120.375 1.152344 C 119.089844 2.226562 117.753906 3.726562 116.480469 5.414062 C 104.855469 20.839844 89.667969 51.285156 75.675781 59.457031 C 70.933594 62.226562 61.453125 64.21875 63.617188 51.503906 C 64.257812 47.75 72.605469 34.214844 74.542969 29.972656 C 76.144531 26.472656 80.175781 17.140625 80.402344 13.222656 L 80.265625 9.3125 C 78.148438 5.273438 76.683594 3.6875 75.527344 3.5625 L 74.535156 3.832031 C 72.921875 4.921875 71.816406 9.003906 69.757812 11.976562 C 57.503906 29.695312 44.894531 50.332031 30.289062 62.382812 C 19.953125 70.914062 18.777344 64.984375 23.082031 49.148438 L 41.738281 11.265625 C 41.75 11.234375 41.757812 11.203125 41.769531 11.171875 L 32.378906 12.640625 L 22.820312 20.183594 C 19.40625 26.339844 16.039062 34.34375 12.660156 39.398438 C 9.472656 44.164062 5.101562 48.503906 0.71875 52.617188 L 1.214844 53.566406 L 7.105469 63.839844 C 9.105469 61.671875 10.910156 59.472656 12.308594 57.757812 C 14.148438 60.425781 13.628906 64.585938 14.339844 68.175781 L 34.644531 70.378906 L 37.894531 71.734375 C 44.105469 66.265625 49.878906 59.242188 55.910156 53.363281 C 60.929688 72.9375 66.023438 79.222656 79.117188 72.347656 C 90.777344 66.222656 95.789062 50.953125 106.21875 43.199219 C 101.464844 59.351562 106.027344 81.234375 118.265625 80.746094 C 120.804688 80.644531 138.542969 65.828125 141.726562 62.65625 C 144.703125 59.695312 147.03125 55.214844 149.828125 51.910156 C 148.007812 77.730469 168.308594 80.035156 178.539062 70.449219 C 179.949219 69.128906 188.984375 54.550781 189.886719 56.28125 C 188.027344 66.972656 190.777344 77.113281 197.265625 81.3125 C 210.117188 89.632812 221.707031 72.285156 231.304688 60.660156 L 232.613281 60.632812 C 234.691406 75.902344 244.238281 75.488281 251.800781 70.886719 C 258.261719 66.953125 262.277344 56.882812 267.785156 50.464844 C 266.910156 60.851562 270.699219 72.183594 277.648438 73.59375 C 290.324219 76.171875 299.746094 57.472656 308.71875 46.078125 C 307.5625 54.859375 310.3125 64.605469 314.78125 69.863281 Z M 314.78125 69.863281 " fill-opacity="1" fill-rule="nonzero"/></g></g></g></g><path fill="#faf5f1" d="M 71.667969 87.699219 L 68.527344 100.140625 L 53.324219 101.769531 L 68.089844 53.585938 C 72.613281 52.832031 77.324219 52.519531 81.910156 52.519531 C 88.378906 52.519531 102.011719 53.269531 102.011719 62.378906 C 102.011719 75.511719 82.664062 85 71.667969 87.699219 Z M 79.082031 64.769531 C 78.707031 64.769531 78.328125 64.832031 77.953125 64.832031 L 74.8125 74.945312 C 77.511719 74.253906 86.621094 71.492188 86.621094 68.222656 C 86.621094 65.269531 81.15625 64.769531 79.082031 64.769531 Z M 79.082031 64.769531 " fill-opacity="1" fill-rule="nonzero"/><path fill="#faf5f1" d="M 123.121094 100.953125 L 107.792969 104.535156 C 108.546875 102.839844 109.300781 101.082031 110.054688 99.382812 C 107.667969 100.390625 105.027344 100.828125 102.453125 100.828125 C 96.925781 100.828125 91.457031 98.628906 91.457031 92.285156 C 91.457031 80.601562 102.328125 73.3125 113.195312 73.3125 C 114.578125 73.3125 115.960938 73.4375 117.277344 73.6875 C 117.34375 72.996094 117.53125 72.308594 117.53125 71.617188 C 117.53125 69.417969 114.199219 69.105469 112.628906 69.105469 C 109.113281 69.105469 104.464844 70.359375 101.132812 71.617188 L 106.410156 60.433594 C 108.859375 59.429688 112.378906 58.988281 114.953125 58.988281 C 124.378906 58.988281 131.601562 62.820312 131.601562 73.3125 C 131.601562 76.703125 124.753906 96.242188 123.121094 100.953125 Z M 114.074219 81.667969 C 110.492188 81.667969 107.351562 84.808594 107.351562 88.453125 C 107.351562 90.652344 109.425781 91.28125 111.246094 91.28125 C 111.6875 91.28125 112.128906 91.28125 112.566406 91.21875 C 113.824219 88.203125 114.765625 84.996094 115.960938 81.917969 C 115.332031 81.792969 114.703125 81.667969 114.074219 81.667969 Z M 114.074219 81.667969 " fill-opacity="1" fill-rule="nonzero"/><path fill="#faf5f1" d="M 176.773438 51.953125 L 161.003906 101.082031 L 146.238281 104.722656 C 146.742188 102.777344 147.183594 100.828125 147.808594 98.882812 C 145.738281 99.886719 143.285156 100.265625 140.960938 100.265625 C 134.304688 100.265625 129.152344 96.808594 129.152344 89.648438 C 129.152344 77.960938 139.203125 66.210938 151.265625 66.210938 C 152.898438 66.210938 154.972656 66.527344 156.230469 67.722656 L 161.695312 54.148438 Z M 152.960938 76.769531 C 152.394531 76.265625 151.769531 76.015625 151.015625 76.015625 C 147.054688 76.015625 142.972656 82.421875 142.972656 86.003906 C 142.972656 88.578125 144.792969 89.144531 146.992188 89.144531 C 147.683594 89.144531 148.375 89.082031 149.066406 88.957031 Z M 152.960938 76.769531 " fill-opacity="1" fill-rule="nonzero"/><path fill="#faf5f1" d="M 198.003906 100.953125 L 182.675781 104.535156 C 183.429688 102.839844 184.183594 101.082031 184.9375 99.382812 C 182.550781 100.390625 179.910156 100.828125 177.335938 100.828125 C 171.808594 100.828125 166.339844 98.628906 166.339844 92.285156 C 166.339844 80.601562 177.210938 73.3125 188.078125 73.3125 C 189.460938 73.3125 190.84375 73.4375 192.164062 73.6875 C 192.226562 72.996094 192.414062 72.308594 192.414062 71.617188 C 192.414062 69.417969 189.085938 69.105469 187.511719 69.105469 C 183.996094 69.105469 179.347656 70.359375 176.015625 71.617188 L 181.292969 60.433594 C 183.742188 59.429688 187.261719 58.988281 189.839844 58.988281 C 199.261719 58.988281 206.488281 62.820312 206.488281 73.3125 C 206.488281 76.703125 199.636719 96.242188 198.003906 100.953125 Z M 188.957031 81.667969 C 185.378906 81.667969 182.238281 84.808594 182.238281 88.453125 C 182.238281 90.652344 184.308594 91.28125 186.132812 91.28125 C 186.570312 91.28125 187.011719 91.28125 187.449219 91.21875 C 188.707031 88.203125 189.648438 84.996094 190.84375 81.917969 C 190.214844 81.792969 189.585938 81.667969 188.957031 81.667969 Z M 188.957031 81.667969 " fill-opacity="1" fill-rule="nonzero"/><path fill="#faf5f1" d="M 231.488281 108.554688 C 226.964844 113.207031 218.796875 114.589844 212.578125 114.589844 C 211.007812 114.589844 209.4375 114.460938 207.867188 114.273438 C 207.867188 111.570312 205.164062 106.546875 205.164062 103.34375 C 205.164062 103.027344 205.164062 102.777344 205.355469 102.527344 L 207.300781 102.527344 C 212.453125 102.527344 219.742188 101.769531 222.441406 96.621094 C 220.808594 96.871094 219.175781 97.058594 217.542969 97.058594 C 210.570312 97.058594 207.617188 93.917969 206.109375 87.320312 C 205.984375 86.820312 205.984375 86.316406 205.984375 85.816406 C 205.984375 80.976562 209.125 72.246094 210.945312 67.59375 C 213.269531 66.902344 222.820312 65.457031 225.269531 65.398438 C 223.699219 70.046875 220.433594 78.085938 220.433594 82.796875 C 220.433594 84.558594 221.8125 85.6875 223.574219 85.6875 C 225.710938 85.6875 226.839844 84.117188 227.53125 82.296875 C 228.222656 80.472656 228.789062 78.527344 229.414062 76.703125 C 231.050781 71.992188 232.808594 67.21875 234.066406 62.378906 C 239.21875 61.625 244.429688 61 249.582031 60.308594 C 246.566406 71.492188 239.28125 100.640625 231.488281 108.554688 Z M 231.488281 108.554688 " fill-opacity="1" fill-rule="nonzero"/><path fill="#faf5f1" d="M 261.265625 101.710938 C 251.464844 101.710938 245.183594 94.171875 245.183594 84.683594 C 245.183594 71.679688 255.171875 59.617188 268.617188 59.617188 C 278.292969 59.617188 284.324219 67.46875 284.324219 76.703125 C 284.324219 88.832031 273.894531 101.710938 261.265625 101.710938 Z M 267.675781 68.976562 C 263.152344 68.976562 259.695312 76.894531 259.003906 80.601562 C 258.691406 82.296875 258.4375 84.054688 258.4375 85.816406 C 258.4375 88.011719 258.941406 90.902344 261.707031 90.902344 C 266.039062 90.902344 269.496094 84.179688 270.3125 80.601562 C 270.816406 78.464844 271.253906 76.203125 271.253906 74.003906 C 271.253906 71.617188 270.5625 68.976562 267.675781 68.976562 Z M 267.675781 68.976562 " fill-opacity="1" fill-rule="nonzero"/><path fill="#faf5f1" d="M 315.605469 101.769531 C 310.457031 102.839844 305.050781 103.152344 299.839844 103.46875 C 302.164062 97.625 307.941406 82.109375 307.941406 76.578125 C 307.941406 76.015625 307.878906 74.757812 307 74.757812 C 303.542969 74.757812 301.722656 79.15625 300.71875 81.855469 C 298.832031 86.695312 297.261719 91.78125 295.753906 96.746094 L 281.242188 98.757812 C 282.8125 92.976562 284.445312 87.132812 285.953125 81.351562 C 287.585938 74.945312 290.039062 68.726562 292.425781 62.570312 C 295 61.5 304.234375 59.554688 307 59.492188 L 305.679688 64.015625 C 309.449219 62.320312 314.664062 61 318.746094 61 C 323.648438 61 325.34375 64.078125 325.34375 68.601562 C 325.34375 77.519531 318.683594 92.976562 315.605469 101.769531 Z M 315.605469 101.769531 " fill-opacity="1" fill-rule="nonzero"/><path fill="#faf5f1" d="M 332.128906 103.089844 C 328.421875 103.089844 323.773438 101.082031 323.773438 96.746094 C 323.773438 91.65625 329.867188 88.765625 334.265625 88.765625 C 337.96875 88.765625 342.621094 90.777344 342.621094 95.113281 C 342.621094 100.199219 336.527344 103.089844 332.128906 103.089844 Z M 359.394531 50.632812 L 341.300781 84.996094 L 328.988281 85.1875 L 336.527344 52.140625 Z M 359.394531 50.632812 " fill-opacity="1" fill-rule="nonzero"/></g></g></g></svg>